<svg xmlns="http://www.w3.org/2000/svg" viewBox="0 0 404.05 568.28" width='32' height='32'><defs><style>.cls-1{fill:#e53935;}.cls-2{fill:#c62827;}.cls-3{fill:#faa634;}.cls-4{fill:#e4701d;}</style></defs><g id="Layer_2" data-name="Layer 2"><g id="Layer_1-2" data-name="Layer 1"><path class="cls-1" d="M272.85,166.76l-70.21,110.6V568.28c71.66-50.08,70.23-92.78,70.21-93.21Z"/><path class="cls-2" d="M132.59,474.57c0,.47-1.45,43.17,70.21,93.25V276.9L132.59,166.3Z"/><path class="cls-3" d="M404,308.91V1.53L298.72,133V476.3c56.06-31.14,81.7-74.77,93.36-106C404.8,336.2,404.05,309.17,404,308.91Z"/><path class="cls-4" d="M105.33,474.77V131.41L0,0V307.34c0,.3-.75,27.39,12,61.49C23.66,400,49.3,443.65,105.33,474.77Z"/><polygon class="cls-3" points="202.18 52.02 202.18 186.01 344.41 0.64 202.18 52.02"/><polygon class="cls-4" points="202.03 52.02 59.79 0.64 202.03 186.01 202.03 52.02"/></g></g></svg>