<?xml version="1.0" encoding="utf-8"?>
<!-- Generator: Adobe Illustrator 25.4.1, SVG Export Plug-In . SVG Version: 6.00 Build 0)  -->
<svg  version="1.1" id="Layer_1" xmlns="http://www.w3.org/2000/svg" xmlns:xlink="http://www.w3.org/1999/xlink"  preserveAspectRatio="xMidYMid meet" aria-hidden="true" role="img" class="iconify iconify--logos" 
	 viewBox="0 0 700 600"  >
<style type="text/css">
	.st0{fill:#E53935;}
	.st1{fill:#C62827;}
	.st2{fill:#FAA634;}
	.st3{fill:#E4701D;}
</style>
<g>
	<path class="st0" d="M466.82,188.62l-70.21,110.6v290.92c71.66-50.08,70.24-92.78,70.21-93.21L466.82,188.62z"/>
	<path class="st1" d="M326.56,496.43c-0.02,0.48-1.45,43.17,70.21,93.26V298.76l-70.21-110.6V496.43z"/>
	<path class="st2" d="M598.01,330.76V23.39L492.69,154.81v343.35c56.06-31.14,81.7-74.77,93.36-106.01
		C598.77,358.06,598.02,331.03,598.01,330.76z"/>
	<path class="st3" d="M299.3,496.63V153.27L193.99,21.86V329.2c-0.01,0.3-0.75,27.39,11.99,61.49
		C217.63,421.9,243.28,465.5,299.3,496.63z"/>
	<g>
		<polygon class="st2" points="396.15,73.87 396.15,207.87 538.38,22.5 		"/>
		<polygon class="st3" points="396,73.87 253.77,22.5 396,207.87 		"/>
	</g>
</g>
</svg>
